<svg data-v-423bf9ae="" xmlns="http://www.w3.org/2000/svg" viewBox="0 0 518 90" class="iconLeft"><!----><!----><!----><g data-v-423bf9ae="" id="430cfb9e-4dc6-43b9-8cf6-73a8f67f2eab" fill="#ffffff" transform="matrix(5.917159562968884,0,0,5.917159562968884,106.92306781178283,-7.426034994767505)"><path d="M8.43 12.21C8.40 12.18 8.36 12.15 8.32 12.15C8.29 12.15 8.27 12.15 8.25 12.17C8.23 12.18 8.20 12.21 8.18 12.22C7.98 12.40 7.77 12.56 7.57 12.70C7.38 12.84 7.17 12.94 6.93 13.03C6.69 13.13 6.44 13.20 6.16 13.24C5.88 13.29 5.57 13.31 5.22 13.31C4.66 13.31 4.12 13.22 3.64 13.01C3.15 12.81 2.74 12.52 2.39 12.14C2.04 11.76 1.75 11.28 1.55 10.74C1.36 10.19 1.26 9.56 1.26 8.86C1.26 8.18 1.36 7.56 1.55 7.01C1.76 6.47 2.04 6.01 2.41 5.61C2.77 5.24 3.21 4.94 3.71 4.73C4.21 4.52 4.76 4.42 5.36 4.42C6.26 4.42 7.08 4.56 7.81 4.89C7.85 5.78 7.90 6.30 7.90 6.41C7.91 6.64 7.99 6.75 8.19 6.75L8.53 6.75L8.53 4.51C7.35 4.03 6.29 3.81 5.36 3.81C4.65 3.81 4.00 3.92 3.40 4.17C2.81 4.42 2.28 4.76 1.86 5.21C1.43 5.66 1.11 6.19 0.87 6.80C0.63 7.42 0.52 8.11 0.52 8.86C0.52 9.63 0.64 10.32 0.87 10.95C1.09 11.58 1.41 12.10 1.82 12.54C2.23 12.99 2.72 13.33 3.29 13.57C3.86 13.80 4.48 13.93 5.17 13.93C5.57 13.93 5.95 13.90 6.30 13.83C6.64 13.76 6.96 13.66 7.25 13.54C7.53 13.41 7.80 13.26 8.04 13.09C8.27 12.91 8.50 12.73 8.71 12.50ZM12.95 6.73C12.45 6.73 12.00 6.83 11.61 7.00C11.21 7.17 10.88 7.41 10.60 7.71C10.32 8.02 10.12 8.40 9.98 8.85C9.84 9.30 9.76 9.79 9.76 10.33C9.76 10.88 9.84 11.37 9.98 11.80C10.12 12.24 10.32 12.63 10.60 12.94C10.88 13.24 11.21 13.48 11.61 13.65C12.00 13.82 12.45 13.90 12.95 13.90C13.45 13.90 13.89 13.82 14.28 13.65C14.67 13.48 15.01 13.24 15.27 12.94C15.54 12.63 15.76 12.24 15.90 11.80C16.04 11.37 16.11 10.88 16.11 10.33C16.11 9.79 16.04 9.30 15.90 8.85C15.76 8.40 15.54 8.02 15.27 7.71C15.01 7.41 14.67 7.17 14.28 7.00C13.89 6.83 13.45 6.73 12.95 6.73ZM12.95 13.38C12.53 13.38 12.17 13.31 11.86 13.17C11.55 13.03 11.28 12.82 11.07 12.56C10.86 12.29 10.72 11.97 10.61 11.59C10.50 11.21 10.46 10.79 10.46 10.33C10.46 9.87 10.50 9.45 10.61 9.07C10.72 8.69 10.86 8.37 11.07 8.11C11.28 7.84 11.55 7.62 11.86 7.48C12.17 7.34 12.53 7.27 12.95 7.27C13.37 7.27 13.72 7.34 14.03 7.48C14.34 7.62 14.60 7.84 14.81 8.11C15.02 8.37 15.18 8.69 15.27 9.07C15.37 9.45 15.43 9.87 15.43 10.33C15.43 10.79 15.37 11.21 15.27 11.59C15.18 11.97 15.02 12.29 14.81 12.56C14.60 12.82 14.34 13.03 14.03 13.17C13.72 13.31 13.37 13.38 12.95 13.38ZM21.90 11.06C21.78 10.86 21.64 10.71 21.46 10.57C21.28 10.43 21.07 10.32 20.85 10.23C20.62 10.15 20.37 10.05 20.13 9.98C19.89 9.91 19.66 9.83 19.42 9.76C19.19 9.69 18.98 9.59 18.80 9.49C18.62 9.39 18.48 9.27 18.37 9.13C18.26 8.99 18.20 8.81 18.20 8.58C18.20 8.40 18.23 8.23 18.31 8.08C18.40 7.92 18.51 7.77 18.66 7.64C18.80 7.52 18.98 7.43 19.19 7.36C19.40 7.29 19.63 7.25 19.88 7.25C20.24 7.25 20.61 7.31 20.99 7.43C21 7.60 21.01 7.77 21.03 7.92C21.04 8.08 21.04 8.19 21.06 8.27C21.07 8.36 21.07 8.43 21.07 8.44C21.08 8.67 21.18 8.78 21.38 8.78L21.71 8.78L21.71 7.11C20.99 6.86 20.37 6.75 19.87 6.75C19.52 6.75 19.19 6.80 18.91 6.90C18.63 7.00 18.38 7.14 18.19 7.31C17.99 7.48 17.84 7.69 17.72 7.91C17.61 8.13 17.57 8.37 17.57 8.62C17.57 8.92 17.63 9.16 17.74 9.35C17.85 9.55 17.99 9.70 18.17 9.84C18.35 9.98 18.55 10.09 18.79 10.18C19.01 10.26 19.25 10.35 19.50 10.42C19.74 10.49 19.98 10.57 20.22 10.64C20.44 10.71 20.65 10.81 20.83 10.92C21.01 11.03 21.17 11.16 21.28 11.31C21.39 11.47 21.45 11.65 21.45 11.89C21.45 12.10 21.41 12.29 21.34 12.49C21.25 12.68 21.14 12.84 20.99 12.98C20.83 13.12 20.65 13.23 20.43 13.31C20.20 13.40 19.95 13.44 19.66 13.44C19.12 13.44 18.68 13.37 18.30 13.22C18.28 13.03 18.27 12.87 18.26 12.71C18.24 12.56 18.24 12.43 18.23 12.35C18.21 12.26 18.21 12.19 18.21 12.18C18.20 11.96 18.10 11.84 17.91 11.84L17.57 11.84L17.57 13.54C18.24 13.79 18.93 13.93 19.63 13.93C20.02 13.93 20.36 13.87 20.66 13.76C20.97 13.65 21.22 13.50 21.43 13.30C21.64 13.10 21.80 12.89 21.91 12.63C22.02 12.36 22.08 12.08 22.08 11.77C22.08 11.49 22.01 11.26 21.90 11.06ZM25.54 13.93C25.83 13.93 26.11 13.86 26.39 13.75C26.66 13.64 26.88 13.48 27.06 13.29L26.88 12.98C26.84 12.94 26.81 12.92 26.77 12.92C26.74 12.92 26.68 12.94 26.63 12.99C26.57 13.05 26.50 13.09 26.42 13.15C26.33 13.20 26.22 13.26 26.10 13.31C25.97 13.37 25.84 13.38 25.68 13.38C25.54 13.38 25.40 13.36 25.28 13.31C25.17 13.27 25.07 13.20 24.99 13.12C24.91 13.03 24.84 12.92 24.78 12.78C24.72 12.64 24.71 12.49 24.71 12.29L24.71 7.57L26.91 7.57L26.91 7.07L24.71 7.07L24.71 4.41L24.39 4.41C24.33 4.41 24.30 4.44 24.28 4.47C24.25 4.49 24.22 4.54 24.22 4.58L24.05 7.07L22.86 7.15L22.86 7.41C22.86 7.46 22.88 7.49 22.90 7.52C22.93 7.55 22.99 7.57 23.04 7.57L24.04 7.57L24.04 12.33C24.04 12.88 24.16 13.27 24.43 13.54C24.70 13.80 25.06 13.93 25.54 13.93ZM37.56 8.86C37.56 8.11 37.44 7.41 37.21 6.79C36.99 6.17 36.67 5.64 36.25 5.19C35.83 4.75 35.34 4.40 34.76 4.16C34.19 3.92 33.53 3.79 32.83 3.79C32.13 3.79 31.50 3.92 30.93 4.16C30.35 4.40 29.85 4.75 29.43 5.19C29.01 5.64 28.69 6.17 28.46 6.79C28.24 7.41 28.11 8.11 28.11 8.86C28.11 9.63 28.24 10.33 28.46 10.95C28.69 11.56 29.01 12.10 29.43 12.54C29.85 12.99 30.35 13.33 30.93 13.57C31.50 13.80 32.13 13.93 32.83 13.93C33.53 13.93 34.19 13.80 34.76 13.57C35.34 13.33 35.83 12.99 36.25 12.54C36.67 12.10 36.99 11.56 37.21 10.95C37.44 10.33 37.56 9.63 37.56 8.86ZM36.81 8.86C36.81 9.56 36.72 10.18 36.53 10.72C36.33 11.27 36.06 11.75 35.71 12.12C35.36 12.50 34.94 12.81 34.45 13.01C33.96 13.20 33.43 13.30 32.83 13.30C32.24 13.30 31.71 13.20 31.22 13.01C30.73 12.81 30.31 12.50 29.96 12.12C29.61 11.75 29.33 11.27 29.13 10.72C28.94 10.18 28.85 9.56 28.85 8.86C28.85 8.18 28.94 7.55 29.13 7.00C29.33 6.45 29.61 5.98 29.96 5.60C30.31 5.22 30.73 4.91 31.22 4.72C31.71 4.52 32.24 4.41 32.83 4.41C33.43 4.41 33.96 4.52 34.45 4.72C34.94 4.91 35.36 5.22 35.71 5.60C36.06 5.98 36.33 6.45 36.53 7.00C36.72 7.55 36.81 8.18 36.81 8.86ZM40.71 5.32C40.80 5.08 40.89 4.90 41.03 4.75C41.17 4.59 41.34 4.48 41.54 4.41C41.73 4.34 41.94 4.31 42.17 4.31C42.31 4.31 42.43 4.33 42.53 4.34C42.63 4.35 42.70 4.35 42.76 4.35C42.84 4.35 42.90 4.33 42.90 4.26L42.91 3.93C42.80 3.89 42.66 3.85 42.52 3.82C42.36 3.79 42.22 3.79 42.08 3.79C41.76 3.79 41.48 3.84 41.22 3.93C40.95 4.03 40.73 4.20 40.54 4.40C40.36 4.59 40.21 4.84 40.11 5.14C40.01 5.43 39.96 5.80 39.96 6.19L39.96 7.07L38.77 7.07L38.77 7.35C38.77 7.46 38.82 7.50 38.96 7.52L39.96 7.59L39.96 13.26C39.79 13.26 39.65 13.27 39.51 13.27C39.37 13.27 39.27 13.29 39.20 13.29L39.07 13.29C38.89 13.30 38.79 13.38 38.79 13.54L38.79 13.82L39.97 13.82L40.61 13.82L41.79 13.82L41.79 13.54C41.79 13.38 41.69 13.30 41.51 13.29L41.38 13.29C41.31 13.29 41.22 13.27 41.08 13.27C40.94 13.27 40.78 13.26 40.61 13.26L40.61 7.57L42.85 7.57L42.85 7.07L40.60 7.07L40.60 6.22C40.60 5.87 40.63 5.56 40.71 5.32ZM43.53 13.29C43.53 13.47 43.58 13.61 43.71 13.73C43.83 13.86 43.99 13.93 44.17 13.93C44.25 13.93 44.34 13.90 44.42 13.87C44.51 13.85 44.56 13.79 44.62 13.73C44.67 13.68 44.73 13.62 44.76 13.54C44.79 13.45 44.81 13.38 44.81 13.29C44.81 13.20 44.79 13.12 44.76 13.03C44.73 12.95 44.67 12.88 44.62 12.82C44.56 12.77 44.51 12.71 44.42 12.68C44.34 12.66 44.25 12.63 44.17 12.63C44.07 12.63 43.99 12.66 43.90 12.68C43.82 12.71 43.76 12.77 43.71 12.82C43.65 12.88 43.60 12.95 43.57 13.03C43.54 13.12 43.53 13.20 43.53 13.29ZM52.84 11.97C52.64 11.97 52.56 12.08 52.54 12.31C52.54 12.32 52.54 12.38 52.53 12.43C52.51 12.49 52.51 12.59 52.50 12.71C52.49 12.84 52.47 13.01 52.46 13.20L48.37 13.20L48.37 4.47C48.54 4.47 48.68 4.45 48.82 4.45C48.96 4.45 49.07 4.44 49.14 4.44L49.27 4.44C49.45 4.42 49.55 4.34 49.55 4.19L49.55 3.92L48.37 3.92L47.66 3.92L46.47 3.92L46.47 4.19C46.47 4.34 46.56 4.42 46.75 4.44L46.89 4.44C46.96 4.44 47.05 4.45 47.19 4.45C47.33 4.45 47.49 4.47 47.66 4.47L47.66 13.26C47.49 13.26 47.33 13.27 47.19 13.27C47.05 13.27 46.96 13.29 46.89 13.29L46.75 13.29C46.56 13.30 46.47 13.38 46.47 13.54L46.47 13.82L47.66 13.82L52.93 13.82L53.06 13.82L53.19 13.82L53.19 13.55L53.19 12.99L53.19 11.97L52.91 11.97ZM55.52 4.89C55.58 4.94 55.65 4.98 55.72 5.01C55.79 5.04 55.87 5.07 55.96 5.07C56.04 5.07 56.13 5.04 56.20 5.01C56.27 4.98 56.34 4.94 56.39 4.89C56.45 4.83 56.50 4.76 56.53 4.69C56.56 4.62 56.59 4.54 56.59 4.45C56.59 4.37 56.56 4.30 56.53 4.21C56.50 4.14 56.45 4.07 56.39 4.02C56.34 3.96 56.27 3.91 56.20 3.88C56.13 3.85 56.04 3.84 55.96 3.84C55.87 3.84 55.79 3.85 55.72 3.88C55.65 3.91 55.58 3.96 55.52 4.02C55.47 4.07 55.43 4.14 55.40 4.21C55.37 4.28 55.34 4.37 55.34 4.45C55.34 4.54 55.37 4.62 55.40 4.69C55.43 4.76 55.47 4.83 55.52 4.89ZM57.02 13.29L56.95 13.29L56.84 13.29C56.80 13.29 56.73 13.27 56.63 13.27C56.53 13.27 56.42 13.26 56.29 13.26L56.29 6.85L55.62 6.85L54.61 6.85L54.61 7.13C54.61 7.28 54.71 7.36 54.89 7.38L54.96 7.38C54.99 7.38 55.03 7.39 55.08 7.39L55.29 7.39C55.38 7.39 55.50 7.41 55.62 7.41L55.62 13.26C55.47 13.26 55.33 13.29 55.22 13.29L54.98 13.29L54.89 13.29C54.71 13.30 54.61 13.38 54.61 13.54L54.61 13.82L55.62 13.82L56.29 13.82L57.30 13.82L57.30 13.54C57.30 13.38 57.20 13.30 57.02 13.29ZM60.44 5.32C60.52 5.08 60.62 4.90 60.76 4.75C60.90 4.59 61.07 4.48 61.26 4.41C61.46 4.34 61.67 4.31 61.89 4.31C62.03 4.31 62.16 4.33 62.26 4.34C62.36 4.35 62.43 4.35 62.48 4.35C62.57 4.35 62.62 4.33 62.62 4.26L62.64 3.93C62.52 3.89 62.38 3.85 62.24 3.82C62.09 3.79 61.95 3.79 61.81 3.79C61.49 3.79 61.21 3.84 60.94 3.93C60.68 4.03 60.45 4.20 60.27 4.40C60.09 4.59 59.93 4.84 59.84 5.14C59.74 5.43 59.68 5.80 59.68 6.19L59.68 7.07L58.49 7.07L58.49 7.35C58.49 7.46 58.55 7.50 58.69 7.52L59.68 7.59L59.68 13.26C59.51 13.26 59.37 13.27 59.23 13.27C59.09 13.27 59.00 13.29 58.93 13.29L58.80 13.29C58.62 13.30 58.52 13.38 58.52 13.54L58.52 13.82L59.70 13.82L60.34 13.82L61.52 13.82L61.52 13.54C61.52 13.38 61.42 13.30 61.24 13.29L61.11 13.29C61.04 13.29 60.94 13.27 60.80 13.27C60.66 13.27 60.51 13.26 60.34 13.26L60.34 7.57L62.58 7.57L62.58 7.07L60.33 7.07L60.33 6.22C60.33 5.87 60.35 5.56 60.44 5.32ZM66.70 6.73C66.21 6.73 65.76 6.83 65.37 7.00C64.97 7.17 64.65 7.41 64.39 7.71C64.12 8.02 63.91 8.39 63.77 8.81C63.63 9.23 63.55 9.69 63.55 10.19C63.55 10.78 63.63 11.31 63.78 11.77C63.94 12.24 64.15 12.61 64.43 12.94C64.71 13.26 65.04 13.50 65.44 13.66C65.83 13.83 66.26 13.90 66.74 13.90C67.00 13.90 67.27 13.89 67.52 13.83C67.77 13.78 68.03 13.71 68.25 13.62C68.47 13.54 68.68 13.44 68.87 13.31C69.05 13.19 69.20 13.06 69.31 12.92L69.13 12.70C69.10 12.66 69.05 12.63 68.99 12.63C68.95 12.63 68.87 12.66 68.77 12.74C68.67 12.82 68.53 12.91 68.35 13.01C68.18 13.10 67.96 13.17 67.70 13.26C67.45 13.34 67.14 13.38 66.79 13.38C66.40 13.38 66.05 13.31 65.73 13.17C65.41 13.03 65.14 12.84 64.92 12.57C64.69 12.31 64.53 11.97 64.40 11.58C64.27 11.19 64.22 10.71 64.22 10.19L64.22 10.07L69.24 10.07C69.31 10.07 69.36 10.05 69.38 10.01C69.41 9.97 69.44 9.90 69.44 9.80C69.44 9.31 69.37 8.88 69.23 8.50C69.09 8.12 68.91 7.78 68.66 7.53C68.42 7.28 68.12 7.08 67.79 6.94C67.45 6.80 67.09 6.73 66.70 6.73ZM66.71 7.24C67.03 7.24 67.31 7.29 67.58 7.41C67.84 7.52 68.07 7.67 68.25 7.88C68.43 8.09 68.59 8.33 68.68 8.62C68.78 8.92 68.84 9.25 68.84 9.63L64.25 9.63C64.29 9.27 64.37 8.93 64.50 8.64C64.62 8.34 64.79 8.09 65.00 7.88C65.21 7.67 65.46 7.52 65.74 7.41C66.02 7.29 66.35 7.24 66.71 7.24Z"></path></g><!----><g data-v-423bf9ae="" id="5028f751-e1c0-4980-a073-9a33ec46b339" transform="matrix(2.8125,0,0,2.8125,0,0)" stroke="none" fill="#1DC7DA"><path d="M16 32c8.837 0 16-7.163 16-16S24.837 0 16 0 0 7.163 0 16s7.163 16 16 16zM14.817 6.421h2v8.886h8.887v2H14.817V6.421zm-5.959.437h2v14.283h14.283v2H8.858V6.858z"></path></g><!----></svg>